<?xml version="1.0" encoding="utf-8"?>
<!-- Generator: Adobe Illustrator 24.1.0, SVG Export Plug-In . SVG Version: 6.00 Build 0)  -->
<svg version="1.1" xmlns="http://www.w3.org/2000/svg" xmlns:xlink="http://www.w3.org/1999/xlink" x="0px" y="0px"
	 viewBox="0 0 544 158" style="enable-background:new 0 0 544 158;" xml:space="preserve">
<style type="text/css">
	.st0{fill:#2373B2;}
	.st1{fill:#B8B2A2;}
</style>
<g id="color_field">
</g>
<g id="logo">
	<g>
		<g id="XMLID_17_">
			<path id="XMLID_26_" class="st0" d="M304.35,89.67c0,1.21-0.78,1.81-2.33,1.81h-35.45c-0.26,2.33-0.39,4.74-0.39,7.25
				c0,6.94,1.65,12.28,4.95,16.01c3.3,3.73,7.99,5.6,14.07,5.6c3.06,0,6.15-0.82,9.25-2.46c3.11-1.64,5.61-3.73,7.5-6.27l0.32-0.13
				c0.39,0,0.77,0.24,1.13,0.71c0.37,0.47,0.55,1.03,0.55,1.68c0,0.91-1.38,2.79-4.14,5.66c-2.76,2.87-5.76,5.06-8.99,6.57
				c-3.23,1.51-6.62,2.26-10.16,2.26c-7.76,0-14.3-2.85-19.6-8.54c-5.31-5.69-7.96-12.68-7.96-20.96c0-8.45,2.6-15.61,7.79-21.48
				c5.2-5.86,11.79-8.8,19.77-8.8c6.69,0,12.3,2.19,16.85,6.57C302.07,79.52,304.35,84.36,304.35,89.67z M292.57,83.98
				c0-3.24-1.11-5.92-3.33-8.06c-2.22-2.13-5.08-3.2-8.57-3.2c-3.32,0-6.2,1.39-8.64,4.17s-4.09,6.44-4.95,10.97l17.99-0.52
				c2.72-0.04,4.65-0.3,5.79-0.78C292,86.09,292.57,85.23,292.57,83.98z"/>
			<path id="XMLID_24_" class="st0" d="M382.5,124.6c0,1.21-0.35,1.81-1.04,1.81c-1.73,0-3.84-0.13-6.34-0.39
				c-2.76-0.26-5.19-0.39-7.29-0.39c-2.15,0-4.62,0.13-7.42,0.39c-2.54,0.26-4.67,0.39-6.39,0.39c-0.69,0-1.03-0.6-1.03-1.81
				c0-1.08,0.34-1.66,1.03-1.75c2.98-0.34,4.93-1.18,5.85-2.52c0.93-1.34,1.39-4.14,1.39-8.41V90.31c0-4.83-0.95-8.37-2.85-10.61
				c-1.9-2.24-4.83-3.36-8.8-3.36c-2.5,0-4.71,0.48-6.63,1.42c-1.92,0.95-3.98,2.63-6.18,5.05v29.11c0,4.27,0.46,7.07,1.39,8.41
				c0.93,1.34,2.88,2.18,5.86,2.52c0.69,0.09,1.03,0.67,1.03,1.75c0,1.21-0.35,1.81-1.03,1.81c-1.77,0-3.93-0.13-6.47-0.39
				c-2.81-0.26-5.26-0.39-7.38-0.39c-2.07,0-4.49,0.13-7.25,0.39c-2.55,0.26-4.7,0.39-6.47,0.39c-0.69,0-1.03-0.6-1.03-1.81
				c0-1.08,0.35-1.66,1.03-1.75c3.71-0.47,6.1-1.37,7.18-2.68c1.08-1.31,1.62-4.06,1.62-8.24v-23.9c0-3.45-0.44-5.7-1.33-6.78
				c-0.88-1.08-2.86-1.79-5.92-2.13c-0.69,0-1.03-0.57-1.03-1.72c0-1.05,0.34-1.58,1.03-1.58c4.27-1.08,7.83-2.3,10.68-3.66
				c2.85-1.36,4.64-2.47,5.37-3.33c0.43-0.52,0.91-0.78,1.42-0.78c1.21,0,1.81,0.35,1.81,1.03l-0.52,8.15
				c6.2-5.78,11.97-8.67,17.31-8.67c5.85,0,10.43,1.68,13.72,5.05c3.3,3.36,4.94,7.89,4.94,13.59v24.71c0,4.23,0.53,6.99,1.58,8.28
				c1.06,1.29,3.42,2.18,7.08,2.65C382.15,122.94,382.5,123.53,382.5,124.6z"/>
			<path id="XMLID_21_" class="st0" d="M442.28,89.67c0,1.21-0.78,1.81-2.33,1.81h-35.45c-0.26,2.33-0.39,4.74-0.39,7.25
				c0,6.94,1.65,12.28,4.95,16.01c3.3,3.73,7.99,5.6,14.07,5.6c3.06,0,6.15-0.82,9.25-2.46c3.11-1.64,5.61-3.73,7.5-6.27l0.32-0.13
				c0.39,0,0.77,0.24,1.13,0.71c0.37,0.47,0.55,1.03,0.55,1.68c0,0.91-1.38,2.79-4.14,5.66c-2.76,2.87-5.76,5.06-8.99,6.57
				c-3.23,1.51-6.62,2.26-10.16,2.26c-7.76,0-14.3-2.85-19.6-8.54c-5.31-5.69-7.96-12.68-7.96-20.96c0-8.45,2.6-15.61,7.79-21.48
				c5.2-5.86,11.79-8.8,19.77-8.8c6.69,0,12.3,2.19,16.85,6.57C440,79.52,442.28,84.36,442.28,89.67z M430.5,83.98
				c0-3.24-1.11-5.92-3.33-8.06c-2.22-2.13-5.08-3.2-8.57-3.2c-3.32,0-6.2,1.39-8.64,4.17c-2.44,2.78-4.09,6.44-4.95,10.97
				L423,87.34c2.72-0.04,4.65-0.3,5.79-0.78C429.93,86.09,430.5,85.23,430.5,83.98z"/>
			<path id="XMLID_18_" class="st0" d="M515.12,98.85c0,8.58-2.8,15.65-8.39,21.19c-5.59,5.54-12.84,8.31-21.73,8.31
				c-8.89,0-16.15-2.78-21.76-8.35c-5.61-5.56-8.42-12.61-8.42-21.16c0-8.67,2.83-15.88,8.48-21.64c5.65-5.76,12.89-8.64,21.7-8.64
				c8.85,0,16.08,2.87,21.7,8.6C512.31,82.92,515.12,90.14,515.12,98.85z M502.05,98.73c0-7.89-1.52-14.2-4.56-18.92
				c-3.04-4.72-7.21-7.08-12.52-7.08c-5.26,0-9.42,2.37-12.49,7.12c-3.06,4.74-4.59,11.04-4.59,18.89c0,7.81,1.51,14.01,4.53,18.6
				c3.02,4.59,7.2,6.89,12.55,6.89c5.35,0,9.53-2.27,12.55-6.83C500.54,112.84,502.05,106.62,502.05,98.73z"/>
		</g>
		<path class="st0" d="M215.03,27.78v-0.01h-47.19c0.41,5.87,0.64,11.12,0.7,23.6h4.34l0.76-5.52c0.67-5.54,1.39-8.64,2.06-9.67
			c0.42-0.6,1.36-1,2.82-1.18c4.61-0.6,7.36-0.79,13.88-0.91h14.86l0.55,15.36c0.12,3.03,0.16,5.66,0.18,8.36v34.05
			c-0.31,15.94-0.45,18.03-0.45,19.3c-0.18,4.67-0.66,7.61-1.45,8.82c-0.54,0.91-1.6,1.62-3.17,2.14
			c-1.57,0.51-7.25,2.13-14.42,2.26v3.22c13.73-0.4,22.58-0.64,26.54-0.71v0.01c3.97,0.07,12.81,0.3,26.55,0.71v-3.22
			c-7.18-0.12-12.85-1.74-14.42-2.25c-1.57-0.52-2.63-1.23-3.17-2.14c-0.78-1.21-1.27-4.15-1.45-8.82c0-1.27-0.15-3.36-0.45-19.3
			l0-33.92c0-2.54,0.06-5.45,0.18-8.48l0.55-15.36h14.86c5.75,0.09,9.27,0.31,13.88,0.91c1.46,0.18,2.4,0.58,2.82,1.18
			c0.67,1.03,1.34,4.35,2.01,9.91l0.81,5.28h4.34c0.05-12.47,0.28-17.72,0.7-23.6H215.03z"/>
	</g>
	<g>
		<rect id="XMLID_4_" x="100.24" y="68.37" class="st1" width="22.12" height="58.95"/>
		<polygon id="XMLID_3_" class="st0" points="47.89,68.37 47.89,49.37 122.35,49.37 122.35,27.44 24.94,27.44 24.94,127.32 
			81.13,127.32 81.13,68.37 		"/>
	</g>
	<g>
		<path class="st0" d="M517.9,65.71c1.02,0,2.02,0.26,3,0.79c0.98,0.53,1.73,1.28,2.28,2.25s0.82,2,0.82,3.06
			c0,1.05-0.27,2.06-0.8,3.03c-0.54,0.97-1.29,1.72-2.26,2.26c-0.97,0.54-1.98,0.8-3.03,0.8s-2.07-0.27-3.03-0.8
			c-0.97-0.54-1.72-1.29-2.26-2.26c-0.54-0.97-0.81-1.98-0.81-3.03c0-1.06,0.27-2.08,0.82-3.06c0.55-0.98,1.31-1.73,2.28-2.25
			C515.88,65.97,516.88,65.71,517.9,65.71z M517.9,66.72c-0.86,0-1.69,0.22-2.5,0.66c-0.81,0.44-1.45,1.07-1.9,1.88
			c-0.46,0.82-0.69,1.67-0.69,2.55c0,0.88,0.22,1.72,0.67,2.53c0.45,0.81,1.08,1.43,1.89,1.88c0.81,0.45,1.65,0.67,2.53,0.67
			c0.88,0,1.72-0.22,2.53-0.67c0.81-0.45,1.44-1.08,1.88-1.88c0.45-0.81,0.67-1.65,0.67-2.53c0-0.88-0.23-1.73-0.68-2.55
			c-0.46-0.82-1.09-1.44-1.9-1.88C519.58,66.94,518.75,66.72,517.9,66.72z M515.22,75.18v-6.56h2.25c0.77,0,1.33,0.06,1.67,0.18
			c0.34,0.12,0.62,0.33,0.82,0.63c0.2,0.3,0.31,0.62,0.31,0.96c0,0.48-0.17,0.9-0.51,1.25c-0.34,0.36-0.8,0.56-1.36,0.6
			c0.23,0.1,0.42,0.21,0.56,0.35c0.26,0.26,0.59,0.69,0.97,1.3l0.8,1.29h-1.29l-0.58-1.03c-0.46-0.81-0.83-1.32-1.11-1.53
			c-0.19-0.15-0.48-0.23-0.85-0.23h-0.62v2.79H515.22z M516.28,71.49h1.29c0.61,0,1.03-0.09,1.26-0.27
			c0.22-0.18,0.34-0.43,0.34-0.73c0-0.19-0.05-0.37-0.16-0.52c-0.11-0.15-0.26-0.27-0.45-0.34c-0.19-0.08-0.55-0.11-1.06-0.11h-1.2
			V71.49z"/>
	</g>
</g>
<g id="guides">
	<g>
	</g>
	<g>
	</g>
	<g>
	</g>
	<g>
	</g>
	<g>
	</g>
	<g>
	</g>
</g>
</svg>
